<?xml version="1.0" standalone="no"?>
<svg xmlns:xlink="http://www.w3.org/1999/xlink" id="wave" style="transform:rotate(0deg); transition: 0.3s" viewBox="0 0 1440 230" version="1.1" xmlns="http://www.w3.org/2000/svg"><defs><linearGradient id="sw-gradient-0" x1="0" x2="0" y1="1" y2="0"><stop stop-color="rgba(86.838, 79.267, 78.228, 0.98)" offset="0%"/><stop stop-color="rgba(0, 0, 0, 0.86)" offset="100%"/></linearGradient></defs><path style="transform:translate(0, 0px); opacity:1" fill="url(#sw-gradient-0)" d="M0,138L288,115L576,115L864,138L1152,46L1440,69L1728,69L2016,138L2304,161L2592,184L2880,23L3168,115L3456,138L3744,69L4032,69L4320,23L4608,0L4896,207L5184,207L5472,184L5760,0L6048,184L6336,161L6624,69L6912,138L6912,230L6624,230L6336,230L6048,230L5760,230L5472,230L5184,230L4896,230L4608,230L4320,230L4032,230L3744,230L3456,230L3168,230L2880,230L2592,230L2304,230L2016,230L1728,230L1440,230L1152,230L864,230L576,230L288,230L0,230Z"/></svg>